<svg xmlns="http://www.w3.org/2000/svg" viewBox="0 0 454.8 622.3" enable-background="new 0 0 454.8 622.3"><path d="M276 422.6c3.3 3.3 7.7 5 12.1 5 4.4 0 8.8-1.7 12.1-5 6.7-6.7 6.7-17.5 0-24.2l-258.8-258.9 62.8-62.8c27.4-27.4 63.8-42.5 102.6-42.5s75.2 15.1 102.6 42.5c27.4 27.4 42.5 63.9 42.5 102.6 0 38.8-15.1 75.2-42.5 102.6-6.7 6.7-6.7 17.5 0 24.2 3.3 3.3 7.7 5 12.1 5 4.4 0 8.8-1.7 12.1-5 33.9-33.9 52.5-78.9 52.5-126.9 0-47.9-18.7-93-52.5-126.9-33.9-33.6-78.9-52.3-126.9-52.3-45.7 0-88.8 17-122 48l-1.5 1.3-3.2 3.2-75 74.9c-6.7 6.7-6.7 17.5 0 24.2l271 271zM449.7 470.8l-73-73-197.9-198c-6.7-6.7-17.5-6.7-24.2 0-6.7 6.7-6.7 17.5 0 24.2l197.9 198 60.9 60.9-62.8 62.8c-56.6 56.5-148.6 56.5-205.2 0-27.4-27.4-42.5-63.9-42.5-102.6s15.1-75.2 42.5-102.6c6.7-6.7 6.7-17.5 0-24.2-6.7-6.7-17.5-6.7-24.2 0-33.9 33.7-52.6 78.8-52.6 126.7s18.7 93 52.5 126.9c35 35 80.9 52.5 126.9 52.5 43.9 0 87.8-16 122.1-47.9.5-.4 1.1-.9 1.5-1.4l3.2-3.2 74.9-74.9c6.7-6.7 6.7-17.6 0-24.2zM17.9 308.1h-.7c-9.5 0-17.1 7.7-17.1 17.1 0 9.5 7.7 17.1 17.1 17.1h.7c9.5 0 17.1-7.7 17.1-17.1 0-9.4-7.7-17.1-17.1-17.1zM334 325.2c0 9.5 7.7 17.1 17.1 17.1h85.7c9.5 0 17.1-7.7 17.1-17.1 0-9.5-7.7-17.1-17.1-17.1h-85.7c-9.4 0-17.1 7.7-17.1 17.1z"/></svg>